<?xml version="1.0" encoding="UTF-8" standalone="no"?>
<svg
   xmlns:dc="http://purl.org/dc/elements/1.1/"
   xmlns:cc="http://creativecommons.org/ns#"
   xmlns:rdf="http://www.w3.org/1999/02/22-rdf-syntax-ns#"
   xmlns:svg="http://www.w3.org/2000/svg"
   xmlns="http://www.w3.org/2000/svg"
   xmlns:sodipodi="http://sodipodi.sourceforge.net/DTD/sodipodi-0.dtd"
   xmlns:inkscape="http://www.inkscape.org/namespaces/inkscape"
   viewBox="0 0 174.58625 87.761498"
   height="93.612267"
   width="186.22534"
   xml:space="preserve"
   version="1.1"
   id="svg2"
   sodipodi:docname="lmu_cd.svg"
   inkscape:version="0.92.1 r"><sodipodi:namedview
     pagecolor="#ffffff"
     bordercolor="#666666"
     borderopacity="1"
     objecttolerance="10"
     gridtolerance="10"
     guidetolerance="10"
     inkscape:pageopacity="0"
     inkscape:pageshadow="2"
     inkscape:window-width="1440"
     inkscape:window-height="900"
     id="namedview243"
     showgrid="false"
     inkscape:zoom="2.0888672"
     inkscape:cx="93.112671"
     inkscape:cy="46.806133"
     inkscape:window-x="0"
     inkscape:window-y="0"
     inkscape:window-maximized="0"
     inkscape:current-layer="g3560" /><metadata
     id="metadata8"><rdf:RDF><cc:Work
         rdf:about=""><dc:format>image/svg+xml</dc:format><dc:type
           rdf:resource="http://purl.org/dc/dcmitype/StillImage" /><dc:title /></cc:Work></rdf:RDF></metadata><defs
     id="defs6"><clipPath
       id="clipPath18"
       clipPathUnits="userSpaceOnUse"><path
         id="path20"
         d="m 12,17.22144 h 571 v 807.5571 H 12 Z" /></clipPath><clipPath
       id="clipPath28"
       clipPathUnits="userSpaceOnUse"><path
         style="clip-rule:evenodd"
         id="path30"
         d="m 111.3367,794.7775 v -19.8636 h 19.8638 v 19.8636 z" /></clipPath><clipPath
       id="clipPath34"
       clipPathUnits="userSpaceOnUse"><path
         id="path36"
         d="m 12,17.22144 h 571 v 807.5571 H 12 Z" /></clipPath><clipPath
       id="clipPath44"
       clipPathUnits="userSpaceOnUse"><path
         id="path46"
         d="m 12,17.22144 h 571 v 807.5571 H 12 Z" /></clipPath><clipPath
       id="clipPath88"
       clipPathUnits="userSpaceOnUse"><path
         style="clip-rule:evenodd"
         id="path90"
         d="M 81.78526,200.7574 V 42.76725 H 240.0864 V 200.7574 Z" /></clipPath><clipPath
       id="clipPath94"
       clipPathUnits="userSpaceOnUse"><path
         id="path96"
         d="m 12,17.22144 h 571 v 807.5571 H 12 Z" /></clipPath><clipPath
       id="clipPath1598"
       clipPathUnits="userSpaceOnUse"><path
         style="clip-rule:evenodd"
         id="path1600"
         d="M 81.78526,200.7574 V 42.76725 H 240.0864 V 200.7574 Z" /></clipPath><clipPath
       id="clipPath1604"
       clipPathUnits="userSpaceOnUse"><path
         id="path1606"
         d="m 115.6074,129.5729 h -5.069 l -10.0396,-6.8234 h 5.0683 l 10.0403,6.8234 m 89.1296,0 h -5.0606 l 10.0403,-6.8234 h 5.0597 l -10.0394,6.8234 m -9.7998,6.6607 v -1.1528 h 1.6967 l -1.6967,1.1528 m -3.5256,0.2406 h -1.8903 l 1.8903,-1.2844 v 1.2844 m -68.7869,1.3136 -3.8437,-2.6122 c -0.055,-0.2621 -0.1105,-0.5271 -0.1673,-0.7967 h -1.0045 l -6.2427,-4.2433 c 1.646,0 3.3437,0 5.0691,0 l 6.2432,4.2433 h -0.0541 v 3.4089 m 69.6443,0.2593 v -3.4399 l 6.5791,-4.4716 c 1.7236,0 3.4161,0 5.0606,0 l -6.6497,4.5195 v -0.2593 h -3.1707 v 2.4147 l -1.8193,1.2366 m -62.8413,4.3643 -2.6358,-1.7908 v -3.4464 l 3.0937,2.1028 c -0.2915,0.9104 -0.4433,1.9544 -0.4579,3.1344 m 50.8629,3.7772 0.8982,-2.5012 0.5485,1.5184 -1.4467,0.9828 m -38.3554,4.7243 -5.1025,-3.468 v -3.4474 l 5.1025,3.4681 v 3.4473 m 24.5953,3.8157 -0.102,-2.5604 7.7778,-5.2852 v 0.5196 h 0.84 v -1.0909 l 1.8452,-1.2544 v 2.3453 h 0.8578 v -2.9277 l 7.9596,-5.4093 c 0.5679,-0.0376 1.0148,-0.2453 1.3273,-0.5732 l -0.125,-0.2443 1.5891,-1.0796 v 1.8172 h 0.8578 v -1.8876 h 2.0535 v 1.5324 l -6.167,4.1916 h -0.5128 v 0.3476 l -2.3303,1.5842 -0.7708,-1.9318 h -0.91 l -1.6944,4.2263 -6.2841,4.2704 -0.0263,-0.0714 h -0.9011 l 0.2215,0.5516 -1.4462,0.9827 0.0902,-1.5343 h -0.8578 l -0.0949,2.1206 -0.4833,0.3289 -0.7472,-1.8265 h -0.7713 l -1.1953,2.8582 m 0.6708,0.3571 0.9494,-2.2973 0.5123,1.3032 -1.4617,0.9941 m -13.5359,3.7997 -4.3576,-2.9616 v -3.4474 l 4.3576,2.9616 c 0,1.1416 0,2.2917 0,3.4474 m 7.9441,0 c 0,-1.1538 0,-2.3011 0,-3.4418 l 4.0304,-2.7388 0.1889,3.1232 h 0.2797 l -4.499,3.0574 m -7.3811,5.0118 v -3.4399 l 0.8752,-0.5938 -0.8752,-0.5948 v -3.4483 l 3.4137,2.3199 3.4043,-2.3143 v 3.4427 l -0.8747,0.5948 0.8747,0.5938 v 3.4342 l -3.4043,-2.3142 -3.4137,2.3199 m -40.9654,27.8411 c -1.7442,0 -3.44,0 -5.0672,0 l 45.4696,-30.8976 c 0,1.1472 0,2.2982 0,3.4398 l -40.4024,27.4578 m 93.8165,0 c -1.6229,0 -3.3197,0 -5.0588,0 L 161.6095,164.274 c 0,-1.1398 0,-2.2879 0,-3.4333 l 4.0548,2.7549 v 0.6577 h 0.8573 v -0.0752 l 40.5579,27.5602 m -101.5124,5.2298 h -5.0683 l 6.8689,-4.667 h 5.0672 l -6.8678,4.667 m 109.2093,0 h -5.0597 l -6.8673,-4.667 h 5.0582 l 6.8688,4.667" /></clipPath><clipPath
       id="clipPath1610"
       clipPathUnits="userSpaceOnUse"><path
         id="path1612"
         d="m 12,17.22144 h 571 v 807.5571 H 12 Z" /></clipPath><clipPath
       id="clipPath1620"
       clipPathUnits="userSpaceOnUse"><path
         style="clip-rule:evenodd"
         id="path1622"
         d="M 81.78526,200.7574 V 42.76725 H 240.0864 V 200.7574 Z" /></clipPath><clipPath
       id="clipPath1626"
       clipPathUnits="userSpaceOnUse"><path
         id="path1628"
         d="m 12,17.22144 h 571 v 807.5571 H 12 Z" /></clipPath><clipPath
       id="clipPath1806"
       clipPathUnits="userSpaceOnUse"><path
         style="clip-rule:evenodd"
         id="path1808"
         d="M 81.78526,682.2846 V 334.5993 H 240.0864 v 347.6853 z" /></clipPath><clipPath
       id="clipPath1812"
       clipPathUnits="userSpaceOnUse"><path
         id="path1814"
         d="m 12,17.22144 h 571 v 807.5571 H 12 Z" /></clipPath><clipPath
       id="clipPath3316"
       clipPathUnits="userSpaceOnUse"><path
         style="clip-rule:evenodd"
         id="path3318"
         d="M 81.78526,682.2846 V 334.5993 H 240.0864 v 347.6853 z" /></clipPath><clipPath
       id="clipPath3322"
       clipPathUnits="userSpaceOnUse"><path
         id="path3324"
         d="m 115.6074,218.4305 h -5.069 l -10.0396,-6.8234 h 5.0683 l 10.0403,6.8234 m 89.1296,0 h -5.0606 l 10.0403,-6.8234 h 5.0597 l -10.0394,6.8234 m -9.7998,6.6607 v -1.1529 h 1.6967 l -1.6967,1.1529 m -3.5256,0.2405 h -1.8903 l 1.8903,-1.2844 v 1.2844 m -68.7869,1.3137 -3.8437,-2.6122 c -0.055,-0.2621 -0.1105,-0.5271 -0.1673,-0.7967 h -1.0045 l -6.2427,-4.2433 c 1.646,0 3.3437,0 5.0691,0 l 6.2432,4.2433 h -0.0541 v 3.4089 m 69.6443,0.2593 v -3.4399 l 6.5791,-4.4716 c 1.7236,0 3.4161,0 5.0606,0 l -6.6497,4.5195 v -0.2593 h -3.1707 v 2.4147 l -1.8193,1.2366 m -62.8413,4.3643 -2.6358,-1.7908 v -3.4464 l 3.0937,2.1028 c -0.2915,0.9104 -0.4433,1.9544 -0.4579,3.1344 m 50.8629,3.7772 0.8982,-2.5012 0.5485,1.5184 -1.4467,0.9828 m -38.3554,4.7243 -5.1025,-3.468 v -3.4474 l 5.1025,3.4681 v 3.4473 m 24.5953,3.8157 -0.102,-2.5604 7.7778,-5.2852 v 0.5196 h 0.84 v -1.0909 l 1.8452,-1.2544 v 2.3453 h 0.8578 v -2.9277 l 7.9596,-5.4093 c 0.5679,-0.0376 1.0148,-0.2453 1.3273,-0.5732 l -0.125,-0.2443 1.5891,-1.0796 v 1.8172 h 0.8578 v -1.8876 h 2.0535 v 1.5324 l -6.167,4.1916 h -0.5128 v 0.3476 l -2.3303,1.5842 -0.7708,-1.9318 h -0.91 l -1.6944,4.2263 -6.2841,4.2704 -0.0263,-0.0714 h -0.9011 l 0.2215,0.5516 -1.4462,0.9827 0.0902,-1.5343 h -0.8578 l -0.0949,2.1206 -0.4833,0.3289 -0.7472,-1.8265 h -0.7713 l -1.1953,2.8582 m 0.6708,0.3571 0.9494,-2.2973 0.5123,1.3032 -1.4617,0.9941 m -13.5359,3.7997 -4.3576,-2.9616 v -3.4474 l 4.3576,2.9616 c 0,1.1416 0,2.2917 0,3.4474 m 7.9441,0 c 0,-1.1538 0,-2.3011 0,-3.4418 l 4.0304,-2.7388 0.1889,3.1232 h 0.2797 l -4.499,3.0574 m -7.3811,5.0118 v -3.4399 l 0.8752,-0.5938 -0.8752,-0.5948 v -3.4483 l 3.4137,2.3199 3.4043,-2.3143 v 3.4427 l -0.8747,0.5948 0.8747,0.5938 v 3.4342 l -3.4043,-2.3142 -3.4137,2.3199 m -40.9654,27.8411 c -1.7442,0 -3.44,0 -5.0672,0 l 45.4696,-30.8976 c 0,1.1472 0,2.2982 0,3.4398 l -40.4024,27.4578 m 93.8165,0 c -1.6229,0 -3.3197,0 -5.0588,0 l -40.4112,-27.4643 c 0,-1.1398 0,-2.2879 0,-3.4333 l 4.0548,2.7548 v 0.6578 h 0.8573 v -0.0752 l 40.5579,27.5602 m -101.5124,5.2298 h -5.0683 l 6.8689,-4.667 h 5.0672 l -6.8678,4.667 m 109.2093,0 h -5.0597 l -6.8673,-4.667 h 5.0582 l 6.8688,4.667" /></clipPath><clipPath
       id="clipPath3328"
       clipPathUnits="userSpaceOnUse"><path
         id="path3330"
         d="m 12,17.22144 h 571 v 807.5571 H 12 Z" /></clipPath><clipPath
       id="clipPath3338"
       clipPathUnits="userSpaceOnUse"><path
         style="clip-rule:evenodd"
         id="path3340"
         d="M 81.78526,682.2846 V 334.5993 H 240.0864 v 347.6853 z" /></clipPath><clipPath
       id="clipPath3344"
       clipPathUnits="userSpaceOnUse"><path
         id="path3346"
         d="m 12,17.22144 h 571 v 807.5571 H 12 Z" /></clipPath><clipPath
       id="clipPath3524"
       clipPathUnits="userSpaceOnUse"><path
         id="path3526"
         d="m 12,17.22144 h 571 v 807.5571 H 12 Z" /></clipPath><clipPath
       id="clipPath3564"
       clipPathUnits="userSpaceOnUse"><path
         style="clip-rule:evenodd"
         id="path3566"
         d="M 360.0333,595.688 V 327.0418 H 517.191 V 595.688 Z" /></clipPath><clipPath
       id="clipPath3570"
       clipPathUnits="userSpaceOnUse"><path
         id="path3572"
         d="m 12,17.22144 h 571 v 807.5571 H 12 Z" /></clipPath><clipPath
       id="clipPath4886"
       clipPathUnits="userSpaceOnUse"><path
         style="clip-rule:evenodd"
         id="path4888"
         d="M 360.0333,595.688 V 327.0418 H 517.191 V 595.688 Z" /></clipPath><clipPath
       id="clipPath4892"
       clipPathUnits="userSpaceOnUse"><path
         id="path4894"
         d="m 568.7997,257.4948 h -5.0631 l -10.0267,-6.8212 h 5.0612 l 10.0286,6.8212 m 89.0159,0 h -5.0547 l 10.0275,-6.8212 h 5.0539 l -10.0267,6.8212 m -9.7883,6.6586 v -1.1525 h 1.6955 l -1.6955,1.1525 m -3.5206,0.2405 h -1.8879 l 1.8879,-1.284 v 1.284 m -68.6995,1.3131 -3.838,-2.6112 c -0.0554,-0.2621 -0.1108,-0.5269 -0.1671,-0.7965 h -1.0037 l -6.2346,-4.2418 c 1.6438,0 3.3393,0 5.0621,0 l 6.2356,4.2418 h -0.0543 v 3.4077 m 69.5557,0.2592 v -3.4387 l 6.5709,-4.47 c 1.7207,0 3.4116,0 5.0536,0 l -6.6412,4.5179 v -0.2592 h -3.1656 v 2.414 l -1.8177,1.236 m -62.7606,4.3631 -2.6324,-1.7903 v -3.4453 l 3.0888,2.1021 c -0.2912,0.9101 -0.4423,1.9537 -0.4564,3.1335 m 50.7981,3.7759 0.8966,-2.5004 0.5473,1.518 -1.4439,0.9824 m -38.307,4.7229 -5.096,-3.467 v -3.4463 l 5.096,3.467 v 3.4463 m 24.5645,3.8144 -0.1024,-2.5595 7.7679,-5.2836 v 0.5195 h 0.8384 v -1.0906 l 1.8437,-1.2539 v 2.3445 h 0.8564 v -2.9269 l 7.9499,-5.4075 c 0.567,-0.0376 1.013,-0.2452 1.3256,-0.573 l -0.1258,-0.2442 1.5876,-1.0793 v 1.8166 h 0.8571 v -1.887 h 2.0504 v 1.532 l -6.1586,4.1902 h -0.5126 v 0.3475 l -2.3274,1.5836 -0.7699,-1.9311 h -0.9088 l -1.6927,4.2249 -6.2751,4.2692 -0.0263,-0.0714 h -0.9003 l 0.2206,0.5513 -1.4438,0.9825 0.09,-1.5338 h -0.8562 l -0.0957,2.12 -0.4826,0.3287 -0.7455,-1.826 h -0.7707 l -1.1932,2.8573 m 0.6694,0.357 0.9481,-2.2966 0.5117,1.3028 -1.4598,0.9938 m -13.5183,3.7984 -4.3523,-2.9606 v -3.4463 l 4.3523,2.9607 c 0,1.1412 0,2.2909 0,3.4462 m 7.9332,0 c 0,-1.1534 0,-2.3003 0,-3.4406 l 4.0256,-2.738 0.1887,3.1222 h 0.2789 l -4.4932,3.0564 m -7.3717,5.0103 v -3.4388 l 0.875,-0.5936 -0.875,-0.5946 v -3.4472 l 3.4098,2.3191 3.4004,-2.3135 v 3.4416 l -0.8741,0.5946 0.8741,0.5936 v 3.4332 l -3.4004,-2.3135 -3.4098,2.3191 m -40.9122,27.8322 c -1.7424,0 -3.4361,0 -5.0613,0 l 45.412,-30.8877 c 0,1.1468 0,2.2974 0,3.4387 l -40.3507,27.449 m 93.6968,0 c -1.6215,0 -3.316,0 -5.0528,0 l -40.3601,-27.4556 c 0,-1.1394 0,-2.2872 0,-3.4321 l 4.05,2.7539 v 0.6575 h 0.8563 v -0.0751 l 40.5066,27.5514 m -101.384,5.2281 h -5.0612 l 6.8601,-4.6654 h 5.0602 l -6.8591,4.6654 m 109.0712,0 h -5.0539 l -6.8581,-4.6654 h 5.0509 l 6.8611,4.6654" /></clipPath><clipPath
       id="clipPath4898"
       clipPathUnits="userSpaceOnUse"><path
         id="path4900"
         d="m 12,17.22144 h 571 v 807.5571 H 12 Z" /></clipPath><clipPath
       id="clipPath4908"
       clipPathUnits="userSpaceOnUse"><path
         style="clip-rule:evenodd"
         id="path4910"
         d="M 360.0333,595.688 V 327.0418 H 517.191 V 595.688 Z" /></clipPath><clipPath
       id="clipPath4914"
       clipPathUnits="userSpaceOnUse"><path
         id="path4916"
         d="m 12,17.22144 h 571 v 807.5571 H 12 Z" /></clipPath><clipPath
       id="clipPath5274"
       clipPathUnits="userSpaceOnUse"><path
         id="path5276"
         d="m 12,17.22144 h 571 v 807.5571 H 12 Z" /></clipPath><clipPath
       id="clipPath5372"
       clipPathUnits="userSpaceOnUse"><path
         style="clip-rule:evenodd"
         id="path5374"
         d="M 360.7634,200.7574 V 42.76725 H 517.2085 V 200.7574 Z" /></clipPath><clipPath
       id="clipPath5378"
       clipPathUnits="userSpaceOnUse"><path
         id="path5380"
         d="m 12,17.22144 h 571 v 807.5571 H 12 Z" /></clipPath><clipPath
       id="clipPath6694"
       clipPathUnits="userSpaceOnUse"><path
         style="clip-rule:evenodd"
         id="path6696"
         d="M 360.7634,200.7574 V 42.76725 H 517.2085 V 200.7574 Z" /></clipPath><clipPath
       id="clipPath6700"
       clipPathUnits="userSpaceOnUse"><path
         id="path6702"
         d="m 755.689,171.9355 h -5.0632 l -10.0266,-6.8212 h 5.0612 l 10.0286,6.8212 m 89.0158,0 h -5.0546 l 10.0275,-6.8212 h 5.0538 l -10.0267,6.8212 m -9.7882,6.6587 v -1.1525 h 1.6955 l -1.6955,1.1525 m -3.5206,0.2405 h -1.8879 l 1.8879,-1.2841 v 1.2841 m -68.6996,1.3131 -3.838,-2.6112 c -0.0553,-0.2621 -0.1107,-0.527 -0.167,-0.7966 h -1.0037 l -6.2346,-4.2418 c 1.6438,0 3.3393,0 5.062,0 l 6.2357,4.2418 h -0.0544 v 3.4078 m 69.5557,0.2592 v -3.4387 l 6.5709,-4.4701 c 1.7208,0 3.4117,0 5.0536,0 l -6.6412,4.518 v -0.2593 h -3.1656 v 2.4141 l -1.8177,1.236 m -62.7605,4.3631 -2.6324,-1.7904 v -3.4453 l 3.0887,2.1021 c -0.2911,0.9102 -0.4422,1.9538 -0.4563,3.1336 m 50.7981,3.7759 0.8965,-2.5004 0.5473,1.518 -1.4438,0.9824 m -38.307,4.7228 -5.096,-3.467 v -3.4462 l 5.096,3.4669 v 3.4463 m 24.5645,3.8145 -0.1024,-2.5596 7.7678,-5.2836 v 0.5195 h 0.8385 v -1.0905 l 1.8437,-1.2539 v 2.3444 h 0.8563 v -2.9268 l 7.95,-5.4076 c 0.5669,-0.0375 1.0129,-0.2452 1.3256,-0.573 l -0.1259,-0.2442 1.5876,-1.0793 v 1.8167 h 0.8572 v -1.887 h 2.0504 v 1.5319 l -6.1587,4.1902 h -0.5126 v 0.3475 l -2.3273,1.5837 -0.7699,-1.9312 h -0.9088 l -1.6928,4.225 -6.275,4.2691 -0.0264,-0.0714 h -0.9002 l 0.2206,0.5514 -1.4439,0.9825 0.0901,-1.5339 h -0.8562 l -0.0958,2.12 -0.4825,0.3288 -0.7455,-1.8261 h -0.7707 l -1.1932,2.8574 m 0.6694,0.3569 0.9481,-2.2966 0.5117,1.3028 -1.4598,0.9938 m -13.5183,3.7985 -4.3523,-2.9607 v -3.4462 l 4.3523,2.9606 c 0,1.1412 0,2.291 0,3.4463 m 7.9332,0 c 0,-1.1534 0,-2.3003 0,-3.4406 l 4.0256,-2.7381 0.1887,3.1223 h 0.2788 l -4.4931,3.0564 m -7.3718,5.0102 v -3.4388 l 0.875,-0.5936 -0.875,-0.5945 v -3.4472 l 3.4099,2.319 3.4004,-2.3135 v 3.4417 l -0.8741,0.5945 0.8741,0.5936 v 3.4332 l -3.4004,-2.3135 -3.4099,2.3191 m -40.9121,27.8323 c -1.7425,0 -3.4361,0 -5.0613,0 l 45.412,-30.8878 c 0,1.1468 0,2.2975 0,3.4388 l -40.3507,27.449 m 93.6967,0 c -1.6214,0 -3.316,0 -5.0527,0 l -40.3601,-27.4556 c 0,-1.1394 0,-2.2872 0,-3.4322 l 4.05,2.754 v 0.6575 h 0.8562 v -0.0752 l 40.5066,27.5515 m -101.3839,5.2281 h -5.0612 l 6.8601,-4.6655 h 5.0602 l -6.8591,4.6655 m 109.0711,0 h -5.0538 l -6.8581,-4.6655 h 5.0509 l 6.861,4.6655" /></clipPath><clipPath
       id="clipPath6706"
       clipPathUnits="userSpaceOnUse"><path
         id="path6708"
         d="m 12,17.22144 h 571 v 807.5571 H 12 Z" /></clipPath><clipPath
       id="clipPath6716"
       clipPathUnits="userSpaceOnUse"><path
         style="clip-rule:evenodd"
         id="path6718"
         d="M 360.7634,200.7574 V 42.76725 H 517.2085 V 200.7574 Z" /></clipPath><clipPath
       id="clipPath6722"
       clipPathUnits="userSpaceOnUse"><path
         id="path6724"
         d="m 12,17.22144 h 571 v 807.5571 H 12 Z" /></clipPath><clipPath
       id="clipPath7082"
       clipPathUnits="userSpaceOnUse"><path
         id="path7084"
         d="m 12,17.22144 h 571 v 807.5571 H 12 Z" /></clipPath><clipPath
       id="clipPath7122"
       clipPathUnits="userSpaceOnUse"><path
         id="path7124"
         d="M 12,12 H 583 V 830 H 12 Z" /></clipPath></defs><g
     transform="matrix(1.25,0,0,-1.25,-460.15875,693.36263)"
     id="g10"><g
       id="g3560"><g
         transform="translate(0,-34.320792)"
         id="g12698"><path
           d="M 434.2752,585.2609 H 371.877 v -62.7092 h 62.678 v 62.7092 z"
           style="fill:#2f854c;fill-opacity:1;fill-rule:nonzero;stroke:none"
           id="path4482" /><path
           d="m 503.7663,585.2609 h -62.3982 v -62.7092 h 62.6779 v 62.7092 z"
           style="fill:#2f854c;fill-opacity:1;fill-rule:nonzero;stroke:none"
           id="path4484" /><path
           d="m 376.3365,548.944 h 2.1142 v -19.9882 h 6.1512 v -1.5949 h -8.2654 z m 20.3763,-16.7045 c 0,-0.1484 0.0732,-0.2235 0.2234,-0.2235 0.1052,0 0.1596,0.0751 0.1596,0.2235 0.1916,1.4033 0.4375,2.9382 0.7361,4.6064 0.3004,1.6682 0.5971,3.295 0.8975,4.8786 0.2985,1.5818 0.5877,3.0227 0.8637,4.317 0.2779,1.2981 0.4919,2.2637 0.6422,2.9025 h 6.919 v -21.5831 h -4.1626 v 18.1715 c 0,0.1072 -0.077,0.1597 -0.2254,0.1597 -0.0845,0 -0.1276,-0.0525 -0.1276,-0.1597 -0.171,-0.8491 -0.3531,-1.8015 -0.5446,-2.8535 -0.1934,-1.052 -0.4281,-2.2844 -0.706,-3.697 -0.2779,-1.4146 -0.614,-3.0659 -1.0082,-4.9577 -0.3944,-1.8917 -0.8601,-4.1122 -1.3934,-6.6633 h -4.3261 c -0.5332,2.5079 -0.9876,4.6758 -1.3612,6.5054 -0.3755,1.8261 -0.7004,3.4304 -0.9782,4.813 -0.2761,1.3808 -0.5221,2.6132 -0.7361,3.6971 -0.2122,1.0839 -0.4263,2.136 -0.6403,3.156 0,0.1072 -0.0751,0.1597 -0.2253,0.1597 -0.0846,0 -0.1277,-0.0525 -0.1277,-0.1597 V 527.3609 H 386.78 v 21.5831 h 6.9511 c 0.107,-0.4677 0.2365,-1.0727 0.3848,-1.8185 0.1484,-0.7439 0.3155,-1.5761 0.4958,-2.5023 0.1821,-0.9224 0.368,-1.9124 0.5614,-2.9626 0.1915,-1.0539 0.3849,-2.1265 0.5765,-3.2217 0.1933,-1.0934 0.368,-2.1679 0.5294,-3.2199 0.1597,-1.052 0.3042,-2.0439 0.4338,-2.9795 z m 13.0703,3.3477 v 13.3568 h 7.3999 v -14.0913 c 0,-0.9994 0.229,-1.7114 0.6871,-2.136 0.46,-0.4245 1.0741,-0.6368 1.842,-0.6368 0.7698,0 1.3896,0.2123 1.8589,0.6368 0.4694,0.4246 0.706,1.1366 0.706,2.136 v 14.0913 h 7.366 v -13.3568 c 0,-1.5949 -0.2403,-2.9494 -0.721,-4.0653 -0.4787,-1.1158 -1.1528,-2.0232 -2.0165,-2.7258 -0.8656,-0.7026 -1.9115,-1.2117 -3.1395,-1.5292 -1.228,-0.3193 -2.5799,-0.4791 -4.0539,-0.4791 -1.4513,0 -2.7864,0.1598 -4.0031,0.4791 -1.2167,0.3175 -2.2645,0.8266 -3.1394,1.5292 -0.8769,0.7026 -1.5604,1.61 -2.0505,2.7258 -0.492,1.1159 -0.736,2.4704 -0.736,4.0653 z"
           style="fill:#ffffff;fill-opacity:1;fill-rule:nonzero;stroke:none"
           id="path4486" /><path
           d="m 445.9796,552.6411 v 4.5837 h 0.8543 v -3.9037 h 2.2776 v -0.68 z"
           style="fill:#ffffff;fill-opacity:1;fill-rule:nonzero;stroke:none"
           id="path4488" /><path
           d="m 452.2303,552.549 c -0.9858,0 -1.9153,0.3532 -1.9153,1.9255 v 2.7503 h 0.8563 v -2.8291 c 0,-0.7271 0.3493,-1.2174 1.059,-1.2174 0.6985,0 1.0402,0.4584 1.0402,1.2174 v 2.8291 h 0.8562 v -2.7503 c 0,-1.4606 -0.9482,-1.9255 -1.8964,-1.9255 z"
           style="fill:#ffffff;fill-opacity:1;fill-rule:nonzero;stroke:none"
           id="path4490" /><path
           d="m 457.253,552.6411 h -1.382 v 4.5837 h 1.382 c 1.6317,0 2.3621,-0.9431 2.3621,-2.259 0,-1.5067 -0.8806,-2.3247 -2.3621,-2.3247 z m -0.0394,3.9357 h -0.4863 v -3.2811 h 0.4863 c 0.9745,0 1.5077,0.4321 1.5077,1.6701 0,1.0737 -0.5145,1.611 -1.5077,1.611 z"
           style="fill:#ffffff;fill-opacity:1;fill-rule:nonzero;stroke:none"
           id="path4492" /><path
           d="m 465.5447,552.6411 h -0.9088 l -0.8881,3.2161 -0.8881,-3.2161 h -0.9088 l -1.3951,4.5837 h 0.9539 l 0.935,-3.5881 0.8825,3.2152 h 0.9069 l 0.8769,-3.2152 0.9275,3.5881 h 0.8957 z"
           style="fill:#ffffff;fill-opacity:1;fill-rule:nonzero;stroke:none"
           id="path4494" /><path
           d="m 468.2298,552.6411 v 4.5837 h 0.8561 v -4.5837 z"
           style="fill:#ffffff;fill-opacity:1;fill-rule:nonzero;stroke:none"
           id="path4496" /><path
           d="m 472.9032,552.549 c -1.395,0 -2.2306,0.9562 -2.2306,2.4234 0,1.5855 1.1642,2.3444 2.2306,2.3444 0.7511,0 1.2375,-0.2357 1.5472,-0.511 l -0.3492,-0.6415 c -0.2497,0.2818 -0.5915,0.5373 -1.198,0.5373 -0.7698,0 -1.3424,-0.6885 -1.3424,-1.7292 0,-1.067 0.5726,-1.8072 1.3819,-1.8072 0.4675,0 0.7379,0.1174 0.8487,0.2216 v 1.1666 h -1.0271 v 0.6285 h 1.8513 v -2.2008 c -0.3961,-0.2424 -0.9294,-0.4321 -1.7124,-0.4321 z"
           style="fill:#ffffff;fill-opacity:1;fill-rule:nonzero;stroke:none"
           id="path4498" /><path
           d="m 477.5898,554.4087 v 0.5702 h -1.7968 v -0.5702 z"
           style="fill:#ffffff;fill-opacity:1;fill-rule:nonzero;stroke:none"
           id="path4500" /><path
           d="m 450.133,544.2193 -0.1578,3.4848 -1.166,-2.8554 h -0.7774 l -1.1903,2.8554 -0.139,-3.4848 h -0.8356 l 0.2703,4.5847 h 1.0666 l 1.2562,-3.0386 1.1923,3.0386 h 1.0665 l 0.2685,-4.5847 z"
           style="fill:#ffffff;fill-opacity:1;fill-rule:nonzero;stroke:none"
           id="path4502" /><path
           d="m 455.7133,544.2193 -0.4018,1.114 h -1.8814 l -0.4074,-1.114 h -0.9032 l 1.8307,4.5847 h 0.8956 l 1.8158,-4.5847 z m -1.3557,3.7337 -0.7172,-2.0044 h 1.4477 z"
           style="fill:#ffffff;fill-opacity:1;fill-rule:nonzero;stroke:none"
           id="path4504" /><path
           d="m 460.8675,544.2193 -1.2449,1.8476 -1.2693,-1.8476 h -1.0271 l 1.7651,2.3774 -1.6262,2.2073 h 1.0723 l 1.1321,-1.7029 1.106,1.7029 h 1.0271 l -1.6205,-2.2073 1.7575,-2.3774 z"
           style="fill:#ffffff;fill-opacity:1;fill-rule:nonzero;stroke:none"
           id="path4506" /><path
           d="m 463.1976,544.2193 v 4.5847 h 0.8563 v -4.5847 z"
           style="fill:#ffffff;fill-opacity:1;fill-rule:nonzero;stroke:none"
           id="path4508" /><path
           d="m 470.0435,544.2193 -0.1595,3.4848 -1.1641,-2.8554 h -0.7774 l -1.1904,2.8554 -0.139,-3.4848 h -0.8356 l 0.2704,4.5847 h 1.0666 l 1.2561,-3.0386 1.1923,3.0386 h 1.0665 l 0.2685,-4.5847 z"
           style="fill:#ffffff;fill-opacity:1;fill-rule:nonzero;stroke:none"
           id="path4510" /><path
           d="m 472.6234,544.2193 v 4.5847 h 0.8544 v -4.5847 z"
           style="fill:#ffffff;fill-opacity:1;fill-rule:nonzero;stroke:none"
           id="path4512" /><path
           d="m 478.4479,544.2193 v 0.681 h -2.2775 v 3.9037 h -0.8562 v -4.5847 z"
           style="fill:#ffffff;fill-opacity:1;fill-rule:nonzero;stroke:none"
           id="path4514" /><path
           d="m 479.9031,544.2193 v 4.5847 h 0.8544 v -4.5847 z"
           style="fill:#ffffff;fill-opacity:1;fill-rule:nonzero;stroke:none"
           id="path4516" /><path
           d="m 485.6225,544.2193 -0.4019,1.114 h -1.8832 l -0.4075,-1.114 h -0.9013 l 1.8289,4.5847 h 0.8956 l 1.8175,-4.5847 z m -1.3557,3.7337 -0.7172,-2.0044 h 1.4476 z"
           style="fill:#ffffff;fill-opacity:1;fill-rule:nonzero;stroke:none"
           id="path4518" /><path
           d="m 490.5776,544.2193 -1.9208,3.4191 v -3.4191 h -0.8431 v 4.5847 h 1.1191 l 1.9227,-3.419 v 3.419 h 0.8412 v -4.5847 z"
           style="fill:#ffffff;fill-opacity:1;fill-rule:nonzero;stroke:none"
           id="path4520" /><path
           d="m 496.5748,545.4902 c 0,0.6942 -0.4206,1.022 -0.9406,1.2445 l -0.9089,0.3861 c -0.2835,0.1183 -0.5802,0.2752 -0.5802,0.603 0,0.2621 0.231,0.5561 0.7379,0.5561 0.5727,0 0.8957,-0.2546 1.1586,-0.5758 l 0.3624,0.5692 c -0.3305,0.3936 -0.9089,0.6228 -1.521,0.6228 -0.7379,0 -1.6128,-0.4321 -1.6128,-1.3169 0,-0.5627 0.3812,-0.9366 0.8749,-1.1459 l 0.9088,-0.3861 c 0.3549,-0.1512 0.6252,-0.3213 0.6252,-0.682 0,-0.2939 -0.2703,-0.6218 -0.8486,-0.6218 -0.5858,0 -0.967,0.2621 -1.2975,0.635 l -0.3605,-0.5758 c 0.2159,-0.2555 0.7361,-0.6744 1.6449,-0.6744 1.3819,0 1.7574,0.8904 1.7574,1.362 z"
           style="fill:#ffffff;fill-opacity:1;fill-rule:nonzero;stroke:none"
           id="path4522" /><path
           d="m 497.6733,545.9881 v 0.57 h 1.7968 v -0.57 z"
           style="fill:#ffffff;fill-opacity:1;fill-rule:nonzero;stroke:none"
           id="path4524" /><path
           d="m 447.829,535.7065 c -0.9875,0 -1.9152,0.3541 -1.9152,1.9256 v 2.7511 h 0.8544 v -2.8291 c 0,-0.7271 0.3492,-1.2183 1.0608,-1.2183 0.6966,0 1.0402,0.4584 1.0402,1.2183 v 2.8291 h 0.8544 v -2.7511 c 0,-1.4607 -0.9463,-1.9256 -1.8946,-1.9256 z"
           style="fill:#ffffff;fill-opacity:1;fill-rule:nonzero;stroke:none"
           id="path4526" /><path
           d="m 454.2337,535.7985 -1.9227,3.4191 v -3.4191 h -0.843 v 4.5847 h 1.119 l 1.9227,-3.419 v 3.419 h 0.8412 v -4.5847 z"
           style="fill:#ffffff;fill-opacity:1;fill-rule:nonzero;stroke:none"
           id="path4528" /><path
           d="m 457.1873,535.7985 v 4.5847 h 0.8562 v -4.5847 z"
           style="fill:#ffffff;fill-opacity:1;fill-rule:nonzero;stroke:none"
           id="path4530" /><path
           d="m 461.919,535.7985 h -0.9069 l -1.8307,4.5847 h 0.9669 l 1.3369,-3.7205 1.3369,3.7205 h 0.9276 z"
           style="fill:#ffffff;fill-opacity:1;fill-rule:nonzero;stroke:none"
           id="path4532" /><path
           d="m 465.019,535.7985 v 4.5847 h 3.0868 v -0.6678 h -2.2306 v -1.2052 h 2.0541 v -0.6555 h -2.0541 v -1.3752 h 2.3171 v -0.681 z"
           style="fill:#ffffff;fill-opacity:1;fill-rule:nonzero;stroke:none"
           id="path4534" /><path
           d="m 472.3118,535.7985 -0.9275,1.3817 c -0.2366,0.3541 -0.4413,0.5965 -0.6572,0.5965 h -0.2122 v -1.9782 h -0.8543 v 4.5847 h 1.7573 c 0.8093,0 1.5398,-0.4255 1.5398,-1.2774 0,-0.8641 -0.7774,-1.1853 -1.1717,-1.2314 0.1315,-0.0846 0.3024,-0.3071 0.3624,-0.3927 l 1.1848,-1.6832 z m -1.0591,3.9367 h -0.7378 v -1.3301 h 0.7378 c 0.6592,0 0.8225,0.3213 0.8225,0.7007 0,0.3475 -0.2704,0.6294 -0.8225,0.6294 z"
           style="fill:#ffffff;fill-opacity:1;fill-rule:nonzero;stroke:none"
           id="path4536" /><path
           d="m 475.8869,535.7065 c -0.9089,0 -1.429,0.4198 -1.6467,0.6744 l 0.3623,0.5767 c 0.3305,-0.3729 0.7117,-0.6349 1.2975,-0.6349 0.5783,0 0.8486,0.3269 0.8486,0.6218 0,0.3607 -0.2703,0.5307 -0.6251,0.6809 l -0.9089,0.3871 c -0.4937,0.2094 -0.8749,0.5823 -0.8749,1.1459 0,0.8839 0.8749,1.3169 1.6128,1.3169 0.6122,0 1.1905,-0.2292 1.5209,-0.6227 l -0.3623,-0.5692 c -0.2629,0.3202 -0.5859,0.5757 -1.1586,0.5757 -0.5069,0 -0.7379,-0.2949 -0.7379,-0.557 0,-0.3269 0.2967,-0.4847 0.5803,-0.6021 l 0.9068,-0.387 c 0.5201,-0.2227 0.9427,-0.5494 0.9427,-1.2436 0,-0.4715 -0.3756,-1.3629 -1.7575,-1.3629 z"
           style="fill:#ffffff;fill-opacity:1;fill-rule:nonzero;stroke:none"
           id="path4538" /><path
           d="m 479.1839,535.7985 v 4.5847 h 0.8563 v -4.5847 z"
           style="fill:#ffffff;fill-opacity:1;fill-rule:nonzero;stroke:none"
           id="path4540" /><path
           d="m 483.7185,539.7022 v -3.9037 h -0.8543 v 3.9037 h -1.5472 v 0.681 h 3.9487 v -0.681 z"
           style="fill:#ffffff;fill-opacity:1;fill-rule:nonzero;stroke:none"
           id="path4542" /><path
           d="m 489.5449,535.7985 -0.4018,1.1131 h -1.8833 l -0.4075,-1.1131 h -0.9012 l 1.8289,4.5847 h 0.8955 l 1.8158,-4.5847 z m -1.9828,5.0037 c -0.2423,0 -0.4469,0.2094 -0.4469,0.4386 0,0.2302 0.1971,0.4396 0.4469,0.4396 0.2516,0 0.4487,-0.2094 0.4487,-0.4396 0,-0.2292 -0.2046,-0.4386 -0.4487,-0.4386 z m 0.6253,-1.2709 -0.7173,-2.0035 h 1.4476 z m 0.6459,1.2709 c -0.2442,0 -0.4469,0.2094 -0.4469,0.4386 0,0.2302 0.1971,0.4396 0.4469,0.4396 0.2496,0 0.4469,-0.2094 0.4469,-0.4396 0,-0.2292 -0.2028,-0.4386 -0.4469,-0.4386 z"
           style="fill:#ffffff;fill-opacity:1;fill-rule:nonzero;stroke:none"
           id="path4544" /><path
           d="m 493.5781,539.7022 v -3.9037 h -0.8544 v 3.9037 h -1.5471 v 0.681 h 3.9487 v -0.681 z"
           style="fill:#ffffff;fill-opacity:1;fill-rule:nonzero;stroke:none"
           id="path4546" /><path
           d="m 450.133,527.3777 -0.1578,3.4839 -1.166,-2.8555 h -0.7774 l -1.1903,2.8555 -0.139,-3.4839 h -0.8356 l 0.2703,4.5847 h 1.0666 l 1.2562,-3.0395 1.1923,3.0395 h 1.0665 l 0.2685,-4.5847 z"
           style="fill:#ffffff;fill-opacity:1;fill-rule:nonzero;stroke:none"
           id="path4548" /><path
           d="m 454.5361,527.2857 c -0.9877,0 -1.9153,0.3532 -1.9153,1.9256 v 2.7511 h 0.8544 v -2.8301 c 0,-0.727 0.3492,-1.2182 1.0609,-1.2182 0.6966,0 1.0402,0.4584 1.0402,1.2182 v 2.8301 h 0.8543 v -2.7511 c 0,-1.4607 -0.9463,-1.9256 -1.8945,-1.9256 z m -0.6986,5.0957 c -0.2422,0 -0.4468,0.2095 -0.4468,0.4386 0,0.2292 0.1971,0.4387 0.4468,0.4387 0.2498,0 0.4545,-0.2095 0.4545,-0.4387 0,-0.2291 -0.2104,-0.4386 -0.4545,-0.4386 z m 1.2713,0 c -0.2441,0 -0.4488,0.2095 -0.4488,0.4386 0,0.2292 0.199,0.4387 0.4488,0.4387 0.2496,0 0.4543,-0.2095 0.4543,-0.4387 0,-0.2291 -0.2122,-0.4386 -0.4543,-0.4386 z"
           style="fill:#ffffff;fill-opacity:1;fill-rule:nonzero;stroke:none"
           id="path4550" /><path
           d="m 460.9407,527.3777 -1.9227,3.4181 v -3.4181 h -0.8431 v 4.5847 h 1.1191 l 1.9227,-3.419 v 3.419 h 0.8412 v -4.5847 z"
           style="fill:#ffffff;fill-opacity:1;fill-rule:nonzero;stroke:none"
           id="path4552" /><path
           d="m 465.8039,527.2857 c -1.4872,0 -2.1857,1.1526 -2.1857,2.4168 0,1.238 0.8488,2.3511 2.1857,2.3511 0.659,0 1.1716,-0.2161 1.5208,-0.5824 l -0.3361,-0.6358 c -0.2573,0.2883 -0.5125,0.5898 -1.1717,0.5898 -0.7772,0 -1.303,-0.7533 -1.303,-1.7227 0,-0.9496 0.5652,-1.7884 1.3106,-1.7884 0.5463,0 0.9068,0.1841 1.2955,0.5965 l 0.3286,-0.6548 c -0.5332,-0.4067 -0.92,-0.5701 -1.6447,-0.5701 z"
           style="fill:#ffffff;fill-opacity:1;fill-rule:nonzero;stroke:none"
           id="path4554" /><path
           d="m 471.694,527.3777 v 2.0759 h -2.0522 v -2.0759 h -0.8563 v 4.5847 h 0.8563 v -1.8804 h 2.0522 v 1.8804 h 0.8563 v -4.5847 z"
           style="fill:#ffffff;fill-opacity:1;fill-rule:nonzero;stroke:none"
           id="path4556" /><path
           d="m 474.3603,527.3777 v 4.5847 h 3.0869 v -0.6688 h -2.2307 v -1.205 h 2.0541 v -0.6548 h -2.0541 v -1.3751 h 2.317 v -0.681 z"
           style="fill:#ffffff;fill-opacity:1;fill-rule:nonzero;stroke:none"
           id="path4558" /><path
           d="m 481.7658,527.3777 -1.9227,3.4181 v -3.4181 h -0.8432 v 4.5847 h 1.1192 l 1.9227,-3.419 v 3.419 h 0.8431 v -4.5847 z"
           style="fill:#ffffff;fill-opacity:1;fill-rule:nonzero;stroke:none"
           id="path4560" /></g></g></g></svg>