<?xml version="1.0" encoding="UTF-8" standalone="no"?>
<svg
   xmlns:dc="http://purl.org/dc/elements/1.1/"
   xmlns:cc="http://creativecommons.org/ns#"
   xmlns:rdf="http://www.w3.org/1999/02/22-rdf-syntax-ns#"
   xmlns:svg="http://www.w3.org/2000/svg"
   xmlns="http://www.w3.org/2000/svg"
   xmlns:sodipodi="http://sodipodi.sourceforge.net/DTD/sodipodi-0.dtd"
   xmlns:inkscape="http://www.inkscape.org/namespaces/inkscape"
   viewBox="0 0 87.761501 87.761498"
   height="93.612267"
   width="93.612267"
   xml:space="preserve"
   version="1.1"
   id="svg2"
   inkscape:version="0.91 r13725"
   sodipodi:docname="lmu1box.svg"><sodipodi:namedview
     pagecolor="#5e5e5e"
     bordercolor="#666666"
     borderopacity="1"
     objecttolerance="10"
     gridtolerance="10"
     guidetolerance="10"
     inkscape:pageopacity="0.32941176"
     inkscape:pageshadow="2"
     inkscape:window-width="1397"
     inkscape:window-height="1143"
     id="namedview120"
     showgrid="false"
     inkscape:zoom="2.1372034"
     inkscape:cx="41.409255"
     inkscape:cy="46.806133"
     inkscape:window-x="121"
     inkscape:window-y="9"
     inkscape:window-maximized="0"
     inkscape:current-layer="g12656" /><metadata
     id="metadata8"><rdf:RDF><cc:Work
         rdf:about=""><dc:format>image/svg+xml</dc:format><dc:type
           rdf:resource="http://purl.org/dc/dcmitype/StillImage" /><dc:title></dc:title></cc:Work></rdf:RDF></metadata><defs
     id="defs6"><clipPath
       id="clipPath18"
       clipPathUnits="userSpaceOnUse"><path
         id="path20"
         d="m 12,17.22144 571,0 0,807.5571 -571,0 z"
         inkscape:connector-curvature="0" /></clipPath><clipPath
       id="clipPath28"
       clipPathUnits="userSpaceOnUse"><path
         style="clip-rule:evenodd"
         id="path30"
         d="m 111.3367,794.7775 0,-19.8636 19.8638,0 0,19.8636 z"
         inkscape:connector-curvature="0" /></clipPath><clipPath
       id="clipPath34"
       clipPathUnits="userSpaceOnUse"><path
         id="path36"
         d="m 12,17.22144 571,0 0,807.5571 -571,0 z"
         inkscape:connector-curvature="0" /></clipPath><clipPath
       id="clipPath44"
       clipPathUnits="userSpaceOnUse"><path
         id="path46"
         d="m 12,17.22144 571,0 0,807.5571 -571,0 z"
         inkscape:connector-curvature="0" /></clipPath><clipPath
       id="clipPath88"
       clipPathUnits="userSpaceOnUse"><path
         style="clip-rule:evenodd"
         id="path90"
         d="m 81.78526,200.7574 0,-157.99015 158.30114,0 0,157.99015 z"
         inkscape:connector-curvature="0" /></clipPath><clipPath
       id="clipPath94"
       clipPathUnits="userSpaceOnUse"><path
         id="path96"
         d="m 12,17.22144 571,0 0,807.5571 -571,0 z"
         inkscape:connector-curvature="0" /></clipPath><clipPath
       id="clipPath1598"
       clipPathUnits="userSpaceOnUse"><path
         style="clip-rule:evenodd"
         id="path1600"
         d="m 81.78526,200.7574 0,-157.99015 158.30114,0 0,157.99015 z"
         inkscape:connector-curvature="0" /></clipPath><clipPath
       id="clipPath1604"
       clipPathUnits="userSpaceOnUse"><path
         id="path1606"
         d="m 115.6074,129.5729 -5.069,0 -10.0396,-6.8234 5.0683,0 10.0403,6.8234 m 89.1296,0 -5.0606,0 10.0403,-6.8234 5.0597,0 -10.0394,6.8234 m -9.7998,6.6607 0,-1.1528 1.6967,0 -1.6967,1.1528 m -3.5256,0.2406 -1.8903,0 1.8903,-1.2844 0,1.2844 m -68.7869,1.3136 -3.8437,-2.6122 c -0.055,-0.2621 -0.1105,-0.5271 -0.1673,-0.7967 l -1.0045,0 -6.2427,-4.2433 c 1.646,0 3.3437,0 5.0691,0 l 6.2432,4.2433 -0.0541,0 0,3.4089 m 69.6443,0.2593 0,-3.4399 6.5791,-4.4716 c 1.7236,0 3.4161,0 5.0606,0 l -6.6497,4.5195 0,-0.2593 -3.1707,0 0,2.4147 -1.8193,1.2366 m -62.8413,4.3643 -2.6358,-1.7908 0,-3.4464 3.0937,2.1028 c -0.2915,0.9104 -0.4433,1.9544 -0.4579,3.1344 m 50.8629,3.7772 0.8982,-2.5012 0.5485,1.5184 -1.4467,0.9828 m -38.3554,4.7243 -5.1025,-3.468 0,-3.4474 5.1025,3.4681 0,3.4473 m 24.5953,3.8157 -0.102,-2.5604 7.7778,-5.2852 0,0.5196 0.84,0 0,-1.0909 1.8452,-1.2544 0,2.3453 0.8578,0 0,-2.9277 7.9596,-5.4093 c 0.5679,-0.0376 1.0148,-0.2453 1.3273,-0.5732 l -0.125,-0.2443 1.5891,-1.0796 0,1.8172 0.8578,0 0,-1.8876 2.0535,0 0,1.5324 -6.167,4.1916 -0.5128,0 0,0.3476 -2.3303,1.5842 -0.7708,-1.9318 -0.91,0 -1.6944,4.2263 -6.2841,4.2704 -0.0263,-0.0714 -0.9011,0 0.2215,0.5516 -1.4462,0.9827 0.0902,-1.5343 -0.8578,0 -0.0949,2.1206 -0.4833,0.3289 -0.7472,-1.8265 -0.7713,0 -1.1953,2.8582 m 0.6708,0.3571 0.9494,-2.2973 0.5123,1.3032 -1.4617,0.9941 m -13.5359,3.7997 -4.3576,-2.9616 0,-3.4474 4.3576,2.9616 c 0,1.1416 0,2.2917 0,3.4474 m 7.9441,0 c 0,-1.1538 0,-2.3011 0,-3.4418 l 4.0304,-2.7388 0.1889,3.1232 0.2797,0 -4.499,3.0574 m -7.3811,5.0118 0,-3.4399 0.8752,-0.5938 -0.8752,-0.5948 0,-3.4483 3.4137,2.3199 3.4043,-2.3143 0,3.4427 -0.8747,0.5948 0.8747,0.5938 0,3.4342 -3.4043,-2.3142 -3.4137,2.3199 m -40.9654,27.8411 c -1.7442,0 -3.44,0 -5.0672,0 l 45.4696,-30.8976 c 0,1.1472 0,2.2982 0,3.4398 l -40.4024,27.4578 m 93.8165,0 c -1.6229,0 -3.3197,0 -5.0588,0 L 161.6095,164.274 c 0,-1.1398 0,-2.2879 0,-3.4333 l 4.0548,2.7549 0,0.6577 0.8573,0 0,-0.0752 40.5579,27.5602 m -101.5124,5.2298 -5.0683,0 6.8689,-4.667 5.0672,0 -6.8678,4.667 m 109.2093,0 -5.0597,0 -6.8673,-4.667 5.0582,0 6.8688,4.667"
         inkscape:connector-curvature="0" /></clipPath><clipPath
       id="clipPath1610"
       clipPathUnits="userSpaceOnUse"><path
         id="path1612"
         d="m 12,17.22144 571,0 0,807.5571 -571,0 z"
         inkscape:connector-curvature="0" /></clipPath><clipPath
       id="clipPath1620"
       clipPathUnits="userSpaceOnUse"><path
         style="clip-rule:evenodd"
         id="path1622"
         d="m 81.78526,200.7574 0,-157.99015 158.30114,0 0,157.99015 z"
         inkscape:connector-curvature="0" /></clipPath><clipPath
       id="clipPath1626"
       clipPathUnits="userSpaceOnUse"><path
         id="path1628"
         d="m 12,17.22144 571,0 0,807.5571 -571,0 z"
         inkscape:connector-curvature="0" /></clipPath><clipPath
       id="clipPath1806"
       clipPathUnits="userSpaceOnUse"><path
         style="clip-rule:evenodd"
         id="path1808"
         d="m 81.78526,682.2846 0,-347.6853 158.30114,0 0,347.6853 z"
         inkscape:connector-curvature="0" /></clipPath><clipPath
       id="clipPath1812"
       clipPathUnits="userSpaceOnUse"><path
         id="path1814"
         d="m 12,17.22144 571,0 0,807.5571 -571,0 z"
         inkscape:connector-curvature="0" /></clipPath><clipPath
       id="clipPath3316"
       clipPathUnits="userSpaceOnUse"><path
         style="clip-rule:evenodd"
         id="path3318"
         d="m 81.78526,682.2846 0,-347.6853 158.30114,0 0,347.6853 z"
         inkscape:connector-curvature="0" /></clipPath><clipPath
       id="clipPath3322"
       clipPathUnits="userSpaceOnUse"><path
         id="path3324"
         d="m 115.6074,218.4305 -5.069,0 -10.0396,-6.8234 5.0683,0 10.0403,6.8234 m 89.1296,0 -5.0606,0 10.0403,-6.8234 5.0597,0 -10.0394,6.8234 m -9.7998,6.6607 0,-1.1529 1.6967,0 -1.6967,1.1529 m -3.5256,0.2405 -1.8903,0 1.8903,-1.2844 0,1.2844 m -68.7869,1.3137 -3.8437,-2.6122 c -0.055,-0.2621 -0.1105,-0.5271 -0.1673,-0.7967 l -1.0045,0 -6.2427,-4.2433 c 1.646,0 3.3437,0 5.0691,0 l 6.2432,4.2433 -0.0541,0 0,3.4089 m 69.6443,0.2593 0,-3.4399 6.5791,-4.4716 c 1.7236,0 3.4161,0 5.0606,0 l -6.6497,4.5195 0,-0.2593 -3.1707,0 0,2.4147 -1.8193,1.2366 m -62.8413,4.3643 -2.6358,-1.7908 0,-3.4464 3.0937,2.1028 c -0.2915,0.9104 -0.4433,1.9544 -0.4579,3.1344 m 50.8629,3.7772 0.8982,-2.5012 0.5485,1.5184 -1.4467,0.9828 m -38.3554,4.7243 -5.1025,-3.468 0,-3.4474 5.1025,3.4681 0,3.4473 m 24.5953,3.8157 -0.102,-2.5604 7.7778,-5.2852 0,0.5196 0.84,0 0,-1.0909 1.8452,-1.2544 0,2.3453 0.8578,0 0,-2.9277 7.9596,-5.4093 c 0.5679,-0.0376 1.0148,-0.2453 1.3273,-0.5732 l -0.125,-0.2443 1.5891,-1.0796 0,1.8172 0.8578,0 0,-1.8876 2.0535,0 0,1.5324 -6.167,4.1916 -0.5128,0 0,0.3476 -2.3303,1.5842 -0.7708,-1.9318 -0.91,0 -1.6944,4.2263 -6.2841,4.2704 -0.0263,-0.0714 -0.9011,0 0.2215,0.5516 -1.4462,0.9827 0.0902,-1.5343 -0.8578,0 -0.0949,2.1206 -0.4833,0.3289 -0.7472,-1.8265 -0.7713,0 -1.1953,2.8582 m 0.6708,0.3571 0.9494,-2.2973 0.5123,1.3032 -1.4617,0.9941 m -13.5359,3.7997 -4.3576,-2.9616 0,-3.4474 4.3576,2.9616 c 0,1.1416 0,2.2917 0,3.4474 m 7.9441,0 c 0,-1.1538 0,-2.3011 0,-3.4418 l 4.0304,-2.7388 0.1889,3.1232 0.2797,0 -4.499,3.0574 m -7.3811,5.0118 0,-3.4399 0.8752,-0.5938 -0.8752,-0.5948 0,-3.4483 3.4137,2.3199 3.4043,-2.3143 0,3.4427 -0.8747,0.5948 0.8747,0.5938 0,3.4342 -3.4043,-2.3142 -3.4137,2.3199 m -40.9654,27.8411 c -1.7442,0 -3.44,0 -5.0672,0 l 45.4696,-30.8976 c 0,1.1472 0,2.2982 0,3.4398 l -40.4024,27.4578 m 93.8165,0 c -1.6229,0 -3.3197,0 -5.0588,0 l -40.4112,-27.4643 c 0,-1.1398 0,-2.2879 0,-3.4333 l 4.0548,2.7548 0,0.6578 0.8573,0 0,-0.0752 40.5579,27.5602 m -101.5124,5.2298 -5.0683,0 6.8689,-4.667 5.0672,0 -6.8678,4.667 m 109.2093,0 -5.0597,0 -6.8673,-4.667 5.0582,0 6.8688,4.667"
         inkscape:connector-curvature="0" /></clipPath><clipPath
       id="clipPath3328"
       clipPathUnits="userSpaceOnUse"><path
         id="path3330"
         d="m 12,17.22144 571,0 0,807.5571 -571,0 z"
         inkscape:connector-curvature="0" /></clipPath><clipPath
       id="clipPath3338"
       clipPathUnits="userSpaceOnUse"><path
         style="clip-rule:evenodd"
         id="path3340"
         d="m 81.78526,682.2846 0,-347.6853 158.30114,0 0,347.6853 z"
         inkscape:connector-curvature="0" /></clipPath><clipPath
       id="clipPath3344"
       clipPathUnits="userSpaceOnUse"><path
         id="path3346"
         d="m 12,17.22144 571,0 0,807.5571 -571,0 z"
         inkscape:connector-curvature="0" /></clipPath><clipPath
       id="clipPath3524"
       clipPathUnits="userSpaceOnUse"><path
         id="path3526"
         d="m 12,17.22144 571,0 0,807.5571 -571,0 z"
         inkscape:connector-curvature="0" /></clipPath><clipPath
       id="clipPath3564"
       clipPathUnits="userSpaceOnUse"><path
         style="clip-rule:evenodd"
         id="path3566"
         d="m 360.0333,595.688 0,-268.6462 157.1577,0 0,268.6462 z"
         inkscape:connector-curvature="0" /></clipPath><clipPath
       id="clipPath3570"
       clipPathUnits="userSpaceOnUse"><path
         id="path3572"
         d="m 12,17.22144 571,0 0,807.5571 -571,0 z"
         inkscape:connector-curvature="0" /></clipPath><clipPath
       id="clipPath4886"
       clipPathUnits="userSpaceOnUse"><path
         style="clip-rule:evenodd"
         id="path4888"
         d="m 360.0333,595.688 0,-268.6462 157.1577,0 0,268.6462 z"
         inkscape:connector-curvature="0" /></clipPath><clipPath
       id="clipPath4892"
       clipPathUnits="userSpaceOnUse"><path
         id="path4894"
         d="m 568.7997,257.4948 -5.0631,0 -10.0267,-6.8212 5.0612,0 10.0286,6.8212 m 89.0159,0 -5.0547,0 10.0275,-6.8212 5.0539,0 -10.0267,6.8212 m -9.7883,6.6586 0,-1.1525 1.6955,0 -1.6955,1.1525 m -3.5206,0.2405 -1.8879,0 1.8879,-1.284 0,1.284 m -68.6995,1.3131 -3.838,-2.6112 c -0.0554,-0.2621 -0.1108,-0.5269 -0.1671,-0.7965 l -1.0037,0 -6.2346,-4.2418 c 1.6438,0 3.3393,0 5.0621,0 l 6.2356,4.2418 -0.0543,0 0,3.4077 m 69.5557,0.2592 0,-3.4387 6.5709,-4.47 c 1.7207,0 3.4116,0 5.0536,0 l -6.6412,4.5179 0,-0.2592 -3.1656,0 0,2.414 -1.8177,1.236 m -62.7606,4.3631 -2.6324,-1.7903 0,-3.4453 3.0888,2.1021 c -0.2912,0.9101 -0.4423,1.9537 -0.4564,3.1335 m 50.7981,3.7759 0.8966,-2.5004 0.5473,1.518 -1.4439,0.9824 m -38.307,4.7229 -5.096,-3.467 0,-3.4463 5.096,3.467 0,3.4463 m 24.5645,3.8144 -0.1024,-2.5595 7.7679,-5.2836 0,0.5195 0.8384,0 0,-1.0906 1.8437,-1.2539 0,2.3445 0.8564,0 0,-2.9269 7.9499,-5.4075 c 0.567,-0.0376 1.013,-0.2452 1.3256,-0.573 l -0.1258,-0.2442 1.5876,-1.0793 0,1.8166 0.8571,0 0,-1.887 2.0504,0 0,1.532 -6.1586,4.1902 -0.5126,0 0,0.3475 -2.3274,1.5836 -0.7699,-1.9311 -0.9088,0 -1.6927,4.2249 -6.2751,4.2692 -0.0263,-0.0714 -0.9003,0 0.2206,0.5513 -1.4438,0.9825 0.09,-1.5338 -0.8562,0 -0.0957,2.12 -0.4826,0.3287 -0.7455,-1.826 -0.7707,0 -1.1932,2.8573 m 0.6694,0.357 0.9481,-2.2966 0.5117,1.3028 -1.4598,0.9938 m -13.5183,3.7984 -4.3523,-2.9606 0,-3.4463 4.3523,2.9607 c 0,1.1412 0,2.2909 0,3.4462 m 7.9332,0 c 0,-1.1534 0,-2.3003 0,-3.4406 l 4.0256,-2.738 0.1887,3.1222 0.2789,0 -4.4932,3.0564 m -7.3717,5.0103 0,-3.4388 0.875,-0.5936 -0.875,-0.5946 0,-3.4472 3.4098,2.3191 3.4004,-2.3135 0,3.4416 -0.8741,0.5946 0.8741,0.5936 0,3.4332 -3.4004,-2.3135 -3.4098,2.3191 m -40.9122,27.8322 c -1.7424,0 -3.4361,0 -5.0613,0 l 45.412,-30.8877 c 0,1.1468 0,2.2974 0,3.4387 l -40.3507,27.449 m 93.6968,0 c -1.6215,0 -3.316,0 -5.0528,0 l -40.3601,-27.4556 c 0,-1.1394 0,-2.2872 0,-3.4321 l 4.05,2.7539 0,0.6575 0.8563,0 0,-0.0751 40.5066,27.5514 m -101.384,5.2281 -5.0612,0 6.8601,-4.6654 5.0602,0 -6.8591,4.6654 m 109.0712,0 -5.0539,0 -6.8581,-4.6654 5.0509,0 6.8611,4.6654"
         inkscape:connector-curvature="0" /></clipPath><clipPath
       id="clipPath4898"
       clipPathUnits="userSpaceOnUse"><path
         id="path4900"
         d="m 12,17.22144 571,0 0,807.5571 -571,0 z"
         inkscape:connector-curvature="0" /></clipPath><clipPath
       id="clipPath4908"
       clipPathUnits="userSpaceOnUse"><path
         style="clip-rule:evenodd"
         id="path4910"
         d="m 360.0333,595.688 0,-268.6462 157.1577,0 0,268.6462 z"
         inkscape:connector-curvature="0" /></clipPath><clipPath
       id="clipPath4914"
       clipPathUnits="userSpaceOnUse"><path
         id="path4916"
         d="m 12,17.22144 571,0 0,807.5571 -571,0 z"
         inkscape:connector-curvature="0" /></clipPath><clipPath
       id="clipPath5274"
       clipPathUnits="userSpaceOnUse"><path
         id="path5276"
         d="m 12,17.22144 571,0 0,807.5571 -571,0 z"
         inkscape:connector-curvature="0" /></clipPath><clipPath
       id="clipPath5372"
       clipPathUnits="userSpaceOnUse"><path
         style="clip-rule:evenodd"
         id="path5374"
         d="m 360.7634,200.7574 0,-157.99015 156.4451,0 0,157.99015 z"
         inkscape:connector-curvature="0" /></clipPath><clipPath
       id="clipPath5378"
       clipPathUnits="userSpaceOnUse"><path
         id="path5380"
         d="m 12,17.22144 571,0 0,807.5571 -571,0 z"
         inkscape:connector-curvature="0" /></clipPath><clipPath
       id="clipPath6694"
       clipPathUnits="userSpaceOnUse"><path
         style="clip-rule:evenodd"
         id="path6696"
         d="m 360.7634,200.7574 0,-157.99015 156.4451,0 0,157.99015 z"
         inkscape:connector-curvature="0" /></clipPath><clipPath
       id="clipPath6700"
       clipPathUnits="userSpaceOnUse"><path
         id="path6702"
         d="m 755.689,171.9355 -5.0632,0 -10.0266,-6.8212 5.0612,0 10.0286,6.8212 m 89.0158,0 -5.0546,0 10.0275,-6.8212 5.0538,0 -10.0267,6.8212 m -9.7882,6.6587 0,-1.1525 1.6955,0 -1.6955,1.1525 m -3.5206,0.2405 -1.8879,0 1.8879,-1.2841 0,1.2841 m -68.6996,1.3131 -3.838,-2.6112 c -0.0553,-0.2621 -0.1107,-0.527 -0.167,-0.7966 l -1.0037,0 -6.2346,-4.2418 c 1.6438,0 3.3393,0 5.062,0 l 6.2357,4.2418 -0.0544,0 0,3.4078 m 69.5557,0.2592 0,-3.4387 6.5709,-4.4701 c 1.7208,0 3.4117,0 5.0536,0 l -6.6412,4.518 0,-0.2593 -3.1656,0 0,2.4141 -1.8177,1.236 m -62.7605,4.3631 -2.6324,-1.7904 0,-3.4453 3.0887,2.1021 c -0.2911,0.9102 -0.4422,1.9538 -0.4563,3.1336 m 50.7981,3.7759 0.8965,-2.5004 0.5473,1.518 -1.4438,0.9824 m -38.307,4.7228 -5.096,-3.467 0,-3.4462 5.096,3.4669 0,3.4463 m 24.5645,3.8145 -0.1024,-2.5596 7.7678,-5.2836 0,0.5195 0.8385,0 0,-1.0905 1.8437,-1.2539 0,2.3444 0.8563,0 0,-2.9268 7.95,-5.4076 c 0.5669,-0.0375 1.0129,-0.2452 1.3256,-0.573 l -0.1259,-0.2442 1.5876,-1.0793 0,1.8167 0.8572,0 0,-1.887 2.0504,0 0,1.5319 -6.1587,4.1902 -0.5126,0 0,0.3475 -2.3273,1.5837 -0.7699,-1.9312 -0.9088,0 -1.6928,4.225 -6.275,4.2691 -0.0264,-0.0714 -0.9002,0 0.2206,0.5514 -1.4439,0.9825 0.0901,-1.5339 -0.8562,0 -0.0958,2.12 -0.4825,0.3288 -0.7455,-1.8261 -0.7707,0 -1.1932,2.8574 m 0.6694,0.3569 0.9481,-2.2966 0.5117,1.3028 -1.4598,0.9938 m -13.5183,3.7985 -4.3523,-2.9607 0,-3.4462 4.3523,2.9606 c 0,1.1412 0,2.291 0,3.4463 m 7.9332,0 c 0,-1.1534 0,-2.3003 0,-3.4406 l 4.0256,-2.7381 0.1887,3.1223 0.2788,0 -4.4931,3.0564 m -7.3718,5.0102 0,-3.4388 0.875,-0.5936 -0.875,-0.5945 0,-3.4472 3.4099,2.319 3.4004,-2.3135 0,3.4417 -0.8741,0.5945 0.8741,0.5936 0,3.4332 -3.4004,-2.3135 -3.4099,2.3191 m -40.9121,27.8323 c -1.7425,0 -3.4361,0 -5.0613,0 l 45.412,-30.8878 c 0,1.1468 0,2.2975 0,3.4388 l -40.3507,27.449 m 93.6967,0 c -1.6214,0 -3.316,0 -5.0527,0 l -40.3601,-27.4556 c 0,-1.1394 0,-2.2872 0,-3.4322 l 4.05,2.754 0,0.6575 0.8562,0 0,-0.0752 40.5066,27.5515 m -101.3839,5.2281 -5.0612,0 6.8601,-4.6655 5.0602,0 -6.8591,4.6655 m 109.0711,0 -5.0538,0 -6.8581,-4.6655 5.0509,0 6.861,4.6655"
         inkscape:connector-curvature="0" /></clipPath><clipPath
       id="clipPath6706"
       clipPathUnits="userSpaceOnUse"><path
         id="path6708"
         d="m 12,17.22144 571,0 0,807.5571 -571,0 z"
         inkscape:connector-curvature="0" /></clipPath><clipPath
       id="clipPath6716"
       clipPathUnits="userSpaceOnUse"><path
         style="clip-rule:evenodd"
         id="path6718"
         d="m 360.7634,200.7574 0,-157.99015 156.4451,0 0,157.99015 z"
         inkscape:connector-curvature="0" /></clipPath><clipPath
       id="clipPath6722"
       clipPathUnits="userSpaceOnUse"><path
         id="path6724"
         d="m 12,17.22144 571,0 0,807.5571 -571,0 z"
         inkscape:connector-curvature="0" /></clipPath><clipPath
       id="clipPath7082"
       clipPathUnits="userSpaceOnUse"><path
         id="path7084"
         d="m 12,17.22144 571,0 0,807.5571 -571,0 z"
         inkscape:connector-curvature="0" /></clipPath><clipPath
       id="clipPath7122"
       clipPathUnits="userSpaceOnUse"><path
         id="path7124"
         d="m 12,12 571,0 0,818 -571,0 z"
         inkscape:connector-curvature="0" /></clipPath></defs><g
     transform="matrix(1.25,0,0,-1.25,-460.15906,788.72843)"
     id="g10"><g
       id="g3560"><g
         transform="translate(186.42255,41.971835)"
         id="g12656"><path
           d="m 247.8524,585.2609 -62.3977,0 0,-62.7092 62.6775,0 0,62.7092 z m -0.2817,-0.5618 c 0,-0.5541 0,-61.0296 0,-61.5839 -0.552,0 -61.0016,0 -61.5546,0 0,0.5543 0,61.0298 0,61.5839 0.553,0 61.0026,0 61.5546,0 z"
           style="fill:#ffffff;fill-opacity:1;fill-rule:nonzero;stroke:none"
           id="path4156"
           inkscape:connector-curvature="0" /><path
           d="m 189.9141,548.944 2.1133,0 0,-19.9882 6.1521,0 0,-1.5949 -8.2654,0 z m 20.3758,-16.7045 c 0,-0.1484 0.0733,-0.2235 0.2234,-0.2235 0.1052,0 0.1596,0.0751 0.1596,0.2235 0.1916,1.4033 0.4375,2.9382 0.7361,4.6064 0.3005,1.6682 0.5972,3.295 0.8975,4.8786 0.2985,1.5818 0.5878,3.0227 0.8638,4.317 0.2779,1.2981 0.4919,2.2637 0.6421,2.9025 l 6.9191,0 0,-21.5831 -4.1628,0 0,18.1715 c 0,0.1072 -0.0769,0.1597 -0.2252,0.1597 -0.0845,0 -0.1277,-0.0525 -0.1277,-0.1597 -0.1709,-0.8491 -0.353,-1.8015 -0.5445,-2.8535 -0.1934,-1.052 -0.4282,-2.2844 -0.706,-3.697 -0.2779,-1.4146 -0.614,-3.0659 -1.0083,-4.9577 -0.3943,-1.8917 -0.86,-4.1122 -1.3933,-6.6633 l -4.3261,0 c -0.5333,2.5079 -0.9876,4.6758 -1.3613,6.5054 -0.3755,1.8261 -0.7003,3.4304 -0.9782,4.813 -0.2761,1.3808 -0.522,2.6132 -0.7361,3.6971 -0.2122,1.0839 -0.4262,2.136 -0.6403,3.156 0,0.1072 -0.075,0.1597 -0.2253,0.1597 -0.0845,0 -0.1276,-0.0525 -0.1276,-0.1597 l 0,-18.1715 -3.8116,0 0,21.5831 6.9509,0 c 0.1072,-0.4677 0.2367,-1.0727 0.385,-1.8185 0.1483,-0.7439 0.3155,-1.5761 0.4958,-2.5023 0.1821,-0.9224 0.368,-1.9124 0.5613,-2.9626 0.1916,-1.0539 0.3849,-2.1265 0.5764,-3.2217 0.1935,-1.0934 0.3682,-2.1679 0.5296,-3.2199 0.1596,-1.052 0.3041,-2.0439 0.4337,-2.9795 z m 13.0704,3.3477 0,13.3568 7.3998,0 0,-14.0913 c 0,-0.9994 0.229,-1.7114 0.6872,-2.136 0.46,-0.4245 1.074,-0.6368 1.842,-0.6368 0.7698,0 1.3894,0.2123 1.8589,0.6368 0.4694,0.4246 0.706,1.1366 0.706,2.136 l 0,14.0913 7.366,0 0,-13.3568 c 0,-1.5949 -0.2403,-2.9494 -0.721,-4.0653 -0.4788,-1.1158 -1.1529,-2.0232 -2.0167,-2.7258 -0.8655,-0.7026 -1.9113,-1.2117 -3.1394,-1.5292 -1.2279,-0.3193 -2.5799,-0.4791 -4.0538,-0.4791 -1.4514,0 -2.7864,0.1598 -4.0031,0.4791 -1.2168,0.3175 -2.2645,0.8266 -3.1395,1.5292 -0.8769,0.7026 -1.5603,1.61 -2.0504,2.7258 -0.4919,1.1159 -0.736,2.4704 -0.736,4.0653 z"
           style="fill:#ffffff;fill-opacity:1;fill-rule:nonzero;stroke:none"
           id="path4160"
           inkscape:connector-curvature="0" /></g></g></g></svg>